#!OML:ASF H:\ManfredETheater\Project 1\Capture day 1\Session 1\subject.ASF
:FULLY-SPECIFIED
:DEGREES
121
root -0.933487 22.2101 6.45055 -167.836 -5.46783 -173.268
lowerback 12.1853 1.62889 5.60008
upperback 1.10216 2.80663 2.9259
thorax -5.54639 1.15427 -0.530232
lowerneck -17.581 -4.05144 -3.76384
upperneck 7.41383 -4.99251 3.24849
head 5.24188 -2.34125 1.14831
rclavicle 4.19436e-014 3.73715e-014
rhumerus -51.6761 10.2596 -93.7568
rradius 94.3957
rwrist -3.1198
rhand -26.9732 8.41485
rfingers 7.12502
rthumb -0.394161 -21.5645
lclavicle 4.19436e-014 3.73715e-014
lhumerus -63.9843 -13.3378 98.4666
lradius 96.8939
lwrist 11.7656
lhand -23.6898 -17.9075
lfingers 7.12502
lthumb 2.7769 12.0541
rfemur -8.07181 -4.2292 31.3361
rtibia 51.2605
rfoot 2.54348 -2.29134
rtoes -31.9425
lfemur -51.9033 -0.648237 -14.6839
ltibia 53.8474
lfoot -7.56428 -11.2646
ltoes -10.0009
122
root -0.933762 22.2393 5.99445 -168.151 -5.37393 -173.553
lowerback 12.1531 1.46013 5.1841
upperback 1.09175 2.53501 2.80109
thorax -5.56535 1.03687 -0.38536
lowerneck -17.614 -3.90112 -3.6206
upperneck 7.54455 -4.82549 3.25893
head 5.27974 -2.2528 1.144
rclavicle -5.76476e-015 4.21423e-014
rhumerus -52.3057 9.71338 -93.4561
rradius 92.8314
rwrist -2.66387
rhand -26.3623 7.99454
rfingers 7.12502
rthumb 0.195847 -21.9851
lclavicle -5.76476e-015 4.21423e-014
lhumerus -62.9895 -13.2988 98.7639
lradius 97.3639
lwrist 11.8522
lhand -23.8514 -17.8212
lfingers 7.12502
lthumb 2.62085 12.1424
rfemur -9.41881 -4.97276 30.8293
rtibia 54.8652
rfoot 1.10643 -3.07774
rtoes -32.0411
lfemur -49.8755 -0.928611 -15.021
ltibia 53.3248
lfoot -6.95601 -11.6385
ltoes -8.40187
123
root -0.93462 22.2556 5.54124 -168.478 -5.2599 -173.968
lowerback 12.174 1.28106 4.63918
upperback 1.07527 2.23751 2.64063
thorax -5.62211 0.90996 -0.202368
lowerneck -17.6033 -3.73161 -3.4501
upperneck 7.64281 -4.63986 3.26565
head 5.29929 -2.15539 1.137
rclavicle -3.27995e-015 -2.3059e-014
rhumerus -52.9726 9.14297 -93.0654
rradius 91.1916
rwrist -2.18296
rhand -25.8287 7.55714
rfingers 7.12502
rthumb 0.711171 -22.4214
lclavicle -3.27995e-015 -2.3059e-014
lhumerus -61.8946 -13.3589 99.0909
lradius 97.9073
lwrist 11.7884
lhand -24.0239 -17.7306
lfingers 7.12502
lthumb 2.45432 12.235
rfemur -10.9365 -5.82581 30.1557
rtibia 58.5534
rfoot -0.349144 -4.09015
rtoes -32.0243
lfemur -47.722 -1.16503 -15.5449
ltibia 52.9565
lfoot -6.69079 -11.9963
ltoes -6.52057
124
root -0.936786 22.2589 5.09069 -168.806 -5.12752 -174.493
lowerback 12.24 1.09287 3.99793
upperback 1.04425 1.91784 2.44654
thorax -5.71817 0.774506 0.00325003
lowerneck -17.5434 -3.54803 -3.26849
upperneck 7.71555 -4.44086 3.28689
head 5.30296 -2.05069 1.13494
rclavicle 1.13307e-014 2.26615e-014
rhumerus -53.6699 8.57724 -92.5918
rradius 89.46
rwrist -1.73405
rhand -25.4476 7.11984
rfingers 7.12502
rthumb 1.07927 -22.8572
lclavicle 1.13307e-014 2.26615e-014
lhumerus -60.7068 -13.51 99.4252
lradius 98.5068
lwrist 11.6042
lhand -24.2129 -17.648
lfingers 7.12502
lthumb 2.2717 12.3197
rfemur -12.6126 -6.75371 29.3432
rtibia 62.2297
rfoot -1.69243 -5.21813
rtoes -31.7465
lfemur -45.4555 -1.34364 -16.2281
ltibia 52.6663
lfoot -6.8916 -12.3362
ltoes -4.09995
125
root -0.940621 22.2496 4.6426 -169.114 -4.9803 -175.101
lowerback 12.331 0.895729 3.29598
upperback 0.991105 1.578 2.22154
thorax -5.84768 0.630916 0.215274
lowerneck -17.4482 -3.34943 -3.07333
upperneck 7.77845 -4.2271 3.32089
head 5.29775 -1.93783 1.13656
rclavicle 6.26172e-015 3.18055e-015
rhumerus -54.3948 8.03792 -92.0431
rradius 87.6513
rwrist -1.38491
rhand -25.2193 6.62619
rfingers 7.12502
rthumb 1.29972 -23.3496
lclavicle 6.26172e-015 3.18055e-015
lhumerus -59.4276 -13.7435 99.7421
lradius 99.1452
lwrist 11.347
lhand -24.4162 -17.5762
lfingers 7.12502
lthumb 2.07544 12.3934
rfemur -14.4438 -7.7171 28.4318
rtibia 65.8192
rfoot -2.90606 -6.38399
rtoes -31.1302
lfemur -43.1164 -1.45528 -17.0325
ltibia 52.398
lfoot -7.6521 -12.5463
ltoes -1.61781
126
root -0.94645 22.2279 4.19685 -169.395 -4.82883 -175.784
lowerback 12.4425 0.68657 2.55186
upperback 0.910826 1.21434 1.96807
thorax -6.01218 0.477178 0.427115
lowerneck -17.3142 -3.14101 -2.87975
upperneck 7.83438 -4.00264 3.37325
head 5.28458 -1.81884 1.14552
rclavicle -5.26779e-015 1.07344e-014
rhumerus -55.1444 7.54067 -91.424
rradius 85.7761
rwrist -1.17619
rhand -25.1226 6.01699
rfingers 7.12502
rthumb 1.39314 -23.9582
lclavicle -5.26779e-015 1.07344e-014
lhumerus -58.0621 -14.0446 100.025
lradius 99.8133
lwrist 11.0774
lhand -24.6355 -17.5172
lfingers 7.12502
lthumb 1.86365 12.4544
rfemur -16.4153 -8.68774 27.444
rtibia 69.2682
rfoot -4.08891 -7.51577
rtoes -30.1953
lfemur -40.7306 -1.51338 -17.9305
ltibia 52.1159
lfoot -8.94823 -12.5361
ltoes 0.587131
127
root -0.953935 22.1947 3.75355 -169.622 -4.68032 -176.546
lowerback 12.5461 0.465683 1.7635
upperback 0.799476 0.824461 1.68641
thorax -6.19927 0.312853 0.641312
lowerneck -17.16 -2.92381 -2.6844
upperneck 7.89301 -3.76783 3.43248
head 5.26905 -1.69444 1.15724
rclavicle -2.33572e-015 1.17283e-014
rhumerus -55.9075 7.0894 -90.7351
rradius 83.8516
rwrist -1.12371
rhand -25.1069 5.30113
rfingers 7.12502
rthumb 1.4083 -24.674
lclavicle -2.33572e-015 1.17283e-014
lhumerus -56.606 -14.4002 100.254
lradius 100.506
lwrist 10.8319
lhand -24.8737 -17.448
lfingers 7.12502
lthumb 1.63351 12.5255
rfemur -18.546 -9.63642 26.397
rtibia 72.5371
rfoot -5.30452 -8.55254
rtoes -29.1832
lfemur -38.357 -1.53151 -18.9071
ltibia 51.8032
lfoot -10.6528 -12.3203
ltoes 2.39047
128
root -0.962299 22.1509 3.31303 -169.762 -4.52432 -177.395
lowerback 12.6118 0.241348 0.914019
upperback 0.648024 0.415758 1.37761
thorax -6.40098 0.142685 0.867201
lowerneck -16.9949 -2.70512 -2.49604
upperneck 7.96035 -3.53003 3.49663
head 5.25489 -1.56848 1.17161
rclavicle 5.51627e-015 -1.60022e-014
rhumerus -56.6868 6.67585 -89.9744
rradius 81.9037
rwrist -1.21322
rhand -25.1432 4.51963
rfingers 7.12502
rthumb 1.3733 -25.4557
lclavicle 5.51627e-015 -1.60022e-014
lhumerus -55.0659 -14.7961 100.425
lradius 101.211
lwrist 10.6313
lhand -25.1454 -17.3878
lfingers 7.12502
lthumb 1.37116 12.5875
rfemur -20.8704 -10.5195 25.3062
rtibia 75.5958
rfoot -6.55684 -9.47509
rtoes -28.2966
lfemur -36.0587 -1.50399 -19.9583
ltibia 51.4563
lfoot -12.599 -11.9637
ltoes 3.754
129
root -0.970452 22.0979 2.87575 -169.789 -4.35693 -178.335
lowerback 12.6119 0.0214476 -0.0115862
upperback 0.455732 -0.00458076 1.04517
thorax -6.60177 -0.0290892 1.11503
lowerneck -16.8631 -2.49693 -2.302
upperneck 8.06835 -3.30476 3.54001
head 5.25894 -1.44914 1.17653
rclavicle 1.13183e-014 3.27995e-015
rhumerus -57.4849 6.28278 -89.135
rradius 79.9762
rwrist -1.39622
rhand -25.1783 3.729
rfingers 7.12502
rthumb 1.33933 -26.2465
lclavicle 1.13183e-014 3.27995e-015
lhumerus -53.4453 -15.2202 100.534
lradius 101.934
lwrist 10.4809
lhand -25.4458 -17.3206
lfingers 7.12502
lthumb 1.08104 12.6564
rfemur -23.4196 -11.3042 24.1937
rtibia 78.4125
rfoot -7.8445 -10.3011
rtoes -27.6051
lfemur -33.8896 -1.4445 -21.073
ltibia 51.0804
lfoot -14.6059 -11.5622
ltoes 4.46189
130
root -0.977879 22.0371 2.44114 -169.701 -4.21329 -179.371
lowerback 12.5374 -0.200882 -1.01212
upperback 0.228398 -0.446044 0.695503
thorax -6.78874 -0.207416 1.3914
lowerneck -16.7799 -2.3081 -2.11583
upperneck 8.21837 -3.10096 3.56257
head 5.28461 -1.34099 1.17339
rclavicle 1.86167e-015 -2.64787e-015
rhumerus -58.3102 5.8935 -88.2058
rradius 78.1275
rwrist -1.58843
rhand -25.1917 3.0005
rfingers 7.12502
rthumb 1.32645 -26.9751
lclavicle 1.86167e-015 -2.64787e-015
lhumerus -51.7514 -15.6574 100.586
lradius 102.673
lwrist 10.364
lhand -25.7808 -17.2524
lfingers 7.12502
lthumb 0.75748 12.726
rfemur -26.1776 -12.0142 23.0706
rtibia 80.9467
rfoot -9.11299 -10.9918
rtoes -27.0463
lfemur -31.861 -1.38893 -22.2482
ltibia 50.6843
lfoot -16.5022 -11.2172
ltoes 4.78095
131
root -0.983894 21.9705 2.00825 -169.511 -4.08119 -180.466
lowerback 12.385 -0.415748 -2.06403
upperback -0.0232097 -0.891311 0.343535
thorax -6.94768 -0.385224 1.69401
lowerneck -16.7594 -2.14438 -1.94312
upperneck 8.4106 -2.92516 3.56343
head 5.33454 -1.24731 1.16232
rclavicle 4.87022e-015 2.5842e-015
rhumerus -59.1819 5.49992 -87.1866
rradius 76.4241
rwrist -1.71019
rhand -25.2078 2.44858
rfingers 7.12502
rthumb 1.31085 -27.5271
lclavicle 4.87022e-015 2.5842e-015
lhumerus -49.9939 -16.0974 100.595
lradius 103.428
lwrist 10.2746
lhand -26.1448 -17.1873
lfingers 7.12502
lthumb 0.405872 12.792
rfemur -29.1127 -12.6093 21.9839
rtibia 83.1463
rfoot -10.2961 -11.5421
rtoes -26.5762
lfemur -29.967 -1.31656 -23.4442
ltibia 50.2775
lfoot -18.2074 -11.0595
ltoes 5.22389
132
root -0.988109 21.9 1.57651 -169.232 -3.98394 -181.571
lowerback 12.1616 -0.629064 -3.11717
upperback -0.288315 -1.33843 0.00797296
thorax -7.07079 -0.563831 2.01228
lowerneck -16.8412 -2.00959 -1.78776
upperneck 8.6659 -2.78241 3.545
head 5.42201 -1.1699 1.14412
rclavicle -3.62782e-015 -7.7526e-015
rhumerus -60.1114 5.10253 -86.0808
rradius 74.9118
rwrist -1.65475
rhand -25.2683 2.19803
rfingers 7.12502
rthumb 1.25248 -27.778
lclavicle -3.62782e-015 -7.7526e-015
lhumerus -48.1844 -16.5227 100.57
lradius 104.203
lwrist 10.2002
lhand -26.5095 -17.1404
lfingers 7.12502
lthumb 0.0536674 12.8393
rfemur -32.1753 -13.0877 20.9897
rtibia 84.9546
rfoot -11.3549 -11.9306
rtoes -26.1561
lfemur -28.1992 -1.23792 -24.6034
ltibia 49.8636
lfoot -19.7017 -11.1822
ltoes 5.72025
133
root -0.990645 21.8288 1.14419 -168.898 -3.92884 -182.624
lowerback 11.8858 -0.842191 -4.10968
upperback -0.552037 -1.7768 -0.291355
thorax -7.15415 -0.74071 2.32908
lowerneck -17.0118 -1.9012 -1.66068
upperneck 8.95749 -2.66815 3.51751
head 5.53666 -1.10668 1.12452
rclavicle -1.21756e-015 -1.78906e-015
rhumerus -61.1244 4.72251 -84.9097
rradius 73.6819
rwrist -1.42131
rhand -25.3853 2.1969
rfingers 7.12502
rthumb 1.13939 -27.7798
lclavicle -1.21756e-015 -1.78906e-015
lhumerus -46.3434 -16.9184 100.529
lradius 105.005
lwrist 10.1448
lhand -26.8613 -17.1233
lfingers 7.12502
lthumb -0.286154 12.8563
rfemur -35.2752 -13.4323 20.141
rtibia 86.3067
rfoot -12.2804 -12.1535
rtoes -25.8254
lfemur -26.512 -1.14724 -25.6564
ltibia 49.4368
lfoot -21.0101 -11.4294
ltoes 5.8231
134
root -0.99193 21.7596 0.70975 -168.551 -3.92305 -183.575
lowerback 11.5914 -1.05852 -4.99265
upperback -0.800562 -2.20131 -0.540015
thorax -7.20434 -0.915189 2.63105
lowerneck -17.2561 -1.81205 -1.5636
upperneck 9.26116 -2.5724 3.48409
head 5.66822 -1.05316 1.10595
rclavicle -1.25483e-014 3.47873e-015
rhumerus -62.2275 4.38745 -83.7032
rradius 72.77
rwrist -1.01815
rhand -25.5795 2.4253
rfingers 7.12502
rthumb 0.95191 -27.5523
lclavicle -1.25483e-014 3.47873e-015
lhumerus -44.5021 -17.2663 100.49
lradius 105.842
lwrist 10.1077
lhand -27.1908 -17.153
lfingers 7.12502
lthumb -0.604408 12.8259
rfemur -38.3068 -13.6385 19.4644
rtibia 87.1449
rfoot -13.0807 -12.2138
rtoes -25.6974
lfemur -24.8458 -1.03702 -26.5506
ltibia 48.98
lfoot -22.0703 -11.857
ltoes 5.90253
